<mxfile host="app.diagrams.net" modified="2024-01-07T10:41:51.754Z" agent="Mozilla/5.0 (Windows NT 10.0; Win64; x64) AppleWebKit/537.36 (KHTML, like Gecko) Chrome/120.0.0.0 Safari/537.36" etag="fXOWf16yVmNyh7lljPRk" version="22.1.17" type="device">
  <diagram id="C5RBs43oDa-KdzZeNtuy" name="Page-1">
    <mxGraphModel dx="1687" dy="929" grid="0" gridSize="10" guides="1" tooltips="1" connect="1" arrows="1" fold="1" page="0" pageScale="1" pageWidth="827" pageHeight="1169" math="0" shadow="0">
      <root>
        <mxCell id="WIyWlLk6GJQsqaUBKTNV-0" />
        <mxCell id="WIyWlLk6GJQsqaUBKTNV-1" parent="WIyWlLk6GJQsqaUBKTNV-0" />
        <mxCell id="myyZjtNwEUtBEG1tO1WQ-0" value="Start" style="ellipse;whiteSpace=wrap;html=1;" vertex="1" parent="WIyWlLk6GJQsqaUBKTNV-1">
          <mxGeometry x="364" y="60" width="100" height="50" as="geometry" />
        </mxCell>
        <mxCell id="myyZjtNwEUtBEG1tO1WQ-2" value="&lt;span style=&quot;font-size: 10px;&quot;&gt;Employee&lt;/span&gt;" style="rounded=0;whiteSpace=wrap;html=1;" vertex="1" parent="WIyWlLk6GJQsqaUBKTNV-1">
          <mxGeometry x="180" y="150" width="100" height="20" as="geometry" />
        </mxCell>
        <mxCell id="myyZjtNwEUtBEG1tO1WQ-3" value="&lt;span style=&quot;font-size: 10px;&quot;&gt;Admin&lt;/span&gt;" style="rounded=0;whiteSpace=wrap;html=1;" vertex="1" parent="WIyWlLk6GJQsqaUBKTNV-1">
          <mxGeometry x="560" y="150" width="100" height="20" as="geometry" />
        </mxCell>
        <mxCell id="myyZjtNwEUtBEG1tO1WQ-4" value="Login" style="rhombus;whiteSpace=wrap;html=1;" vertex="1" parent="WIyWlLk6GJQsqaUBKTNV-1">
          <mxGeometry x="200" y="200" width="60" height="60" as="geometry" />
        </mxCell>
        <mxCell id="myyZjtNwEUtBEG1tO1WQ-5" value="Login" style="rhombus;whiteSpace=wrap;html=1;" vertex="1" parent="WIyWlLk6GJQsqaUBKTNV-1">
          <mxGeometry x="580" y="200" width="60" height="60" as="geometry" />
        </mxCell>
        <mxCell id="myyZjtNwEUtBEG1tO1WQ-6" value="" style="endArrow=classic;html=1;rounded=0;entryX=0.5;entryY=0;entryDx=0;entryDy=0;exitX=0;exitY=0.5;exitDx=0;exitDy=0;" edge="1" parent="WIyWlLk6GJQsqaUBKTNV-1" source="myyZjtNwEUtBEG1tO1WQ-0" target="myyZjtNwEUtBEG1tO1WQ-2">
          <mxGeometry width="50" height="50" relative="1" as="geometry">
            <mxPoint x="360" y="90" as="sourcePoint" />
            <mxPoint x="230" y="80" as="targetPoint" />
            <Array as="points">
              <mxPoint x="230" y="85" />
            </Array>
          </mxGeometry>
        </mxCell>
        <mxCell id="myyZjtNwEUtBEG1tO1WQ-7" value="" style="endArrow=classic;html=1;rounded=0;exitX=1;exitY=0.5;exitDx=0;exitDy=0;entryX=0.5;entryY=0;entryDx=0;entryDy=0;" edge="1" parent="WIyWlLk6GJQsqaUBKTNV-1" source="myyZjtNwEUtBEG1tO1WQ-0" target="myyZjtNwEUtBEG1tO1WQ-3">
          <mxGeometry width="50" height="50" relative="1" as="geometry">
            <mxPoint x="520" y="70" as="sourcePoint" />
            <mxPoint x="570" y="20" as="targetPoint" />
            <Array as="points">
              <mxPoint x="610" y="85" />
            </Array>
          </mxGeometry>
        </mxCell>
        <mxCell id="myyZjtNwEUtBEG1tO1WQ-8" value="" style="endArrow=classic;html=1;rounded=0;exitX=0.5;exitY=1;exitDx=0;exitDy=0;entryX=0.5;entryY=0;entryDx=0;entryDy=0;" edge="1" parent="WIyWlLk6GJQsqaUBKTNV-1" source="myyZjtNwEUtBEG1tO1WQ-2" target="myyZjtNwEUtBEG1tO1WQ-4">
          <mxGeometry width="50" height="50" relative="1" as="geometry">
            <mxPoint x="390" y="330" as="sourcePoint" />
            <mxPoint x="440" y="280" as="targetPoint" />
          </mxGeometry>
        </mxCell>
        <mxCell id="myyZjtNwEUtBEG1tO1WQ-9" value="" style="endArrow=classic;html=1;rounded=0;exitX=0.5;exitY=1;exitDx=0;exitDy=0;entryX=0.5;entryY=0;entryDx=0;entryDy=0;" edge="1" parent="WIyWlLk6GJQsqaUBKTNV-1" source="myyZjtNwEUtBEG1tO1WQ-3" target="myyZjtNwEUtBEG1tO1WQ-5">
          <mxGeometry width="50" height="50" relative="1" as="geometry">
            <mxPoint x="390" y="330" as="sourcePoint" />
            <mxPoint x="440" y="280" as="targetPoint" />
          </mxGeometry>
        </mxCell>
        <mxCell id="myyZjtNwEUtBEG1tO1WQ-10" value="" style="endArrow=classic;html=1;rounded=0;exitX=1;exitY=0.5;exitDx=0;exitDy=0;" edge="1" parent="WIyWlLk6GJQsqaUBKTNV-1" source="myyZjtNwEUtBEG1tO1WQ-4">
          <mxGeometry width="50" height="50" relative="1" as="geometry">
            <mxPoint x="390" y="330" as="sourcePoint" />
            <mxPoint x="240" y="190" as="targetPoint" />
            <Array as="points">
              <mxPoint x="280" y="230" />
              <mxPoint x="280" y="190" />
            </Array>
          </mxGeometry>
        </mxCell>
        <mxCell id="myyZjtNwEUtBEG1tO1WQ-11" value="NO" style="edgeLabel;html=1;align=center;verticalAlign=middle;resizable=0;points=[];" vertex="1" connectable="0" parent="myyZjtNwEUtBEG1tO1WQ-10">
          <mxGeometry x="-0.1" y="3" relative="1" as="geometry">
            <mxPoint as="offset" />
          </mxGeometry>
        </mxCell>
        <mxCell id="myyZjtNwEUtBEG1tO1WQ-12" value="YES" style="text;html=1;align=center;verticalAlign=middle;resizable=0;points=[];autosize=1;strokeColor=none;fillColor=none;" vertex="1" parent="WIyWlLk6GJQsqaUBKTNV-1">
          <mxGeometry x="165" y="240" width="50" height="30" as="geometry" />
        </mxCell>
        <mxCell id="myyZjtNwEUtBEG1tO1WQ-13" value="" style="endArrow=classic;html=1;rounded=0;exitX=0.5;exitY=1;exitDx=0;exitDy=0;" edge="1" parent="WIyWlLk6GJQsqaUBKTNV-1" source="myyZjtNwEUtBEG1tO1WQ-4">
          <mxGeometry width="50" height="50" relative="1" as="geometry">
            <mxPoint x="390" y="330" as="sourcePoint" />
            <mxPoint x="230" y="290" as="targetPoint" />
          </mxGeometry>
        </mxCell>
        <mxCell id="myyZjtNwEUtBEG1tO1WQ-14" value="View Dashboard" style="shape=parallelogram;perimeter=parallelogramPerimeter;whiteSpace=wrap;html=1;fixedSize=1;" vertex="1" parent="WIyWlLk6GJQsqaUBKTNV-1">
          <mxGeometry x="170" y="290" width="120" height="40" as="geometry" />
        </mxCell>
        <mxCell id="myyZjtNwEUtBEG1tO1WQ-15" value="" style="endArrow=classic;html=1;rounded=0;exitX=0.5;exitY=1;exitDx=0;exitDy=0;" edge="1" parent="WIyWlLk6GJQsqaUBKTNV-1" source="myyZjtNwEUtBEG1tO1WQ-14">
          <mxGeometry width="50" height="50" relative="1" as="geometry">
            <mxPoint x="390" y="430" as="sourcePoint" />
            <mxPoint x="230" y="360" as="targetPoint" />
          </mxGeometry>
        </mxCell>
        <mxCell id="myyZjtNwEUtBEG1tO1WQ-16" value="Apply Leave" style="rounded=0;whiteSpace=wrap;html=1;" vertex="1" parent="WIyWlLk6GJQsqaUBKTNV-1">
          <mxGeometry x="180" y="360" width="100" height="40" as="geometry" />
        </mxCell>
        <mxCell id="myyZjtNwEUtBEG1tO1WQ-18" value="Apply OT" style="rounded=0;whiteSpace=wrap;html=1;" vertex="1" parent="WIyWlLk6GJQsqaUBKTNV-1">
          <mxGeometry x="180" y="430" width="100" height="40" as="geometry" />
        </mxCell>
        <mxCell id="myyZjtNwEUtBEG1tO1WQ-21" value="My Profile" style="rounded=0;whiteSpace=wrap;html=1;" vertex="1" parent="WIyWlLk6GJQsqaUBKTNV-1">
          <mxGeometry x="180" y="500" width="100" height="40" as="geometry" />
        </mxCell>
        <mxCell id="myyZjtNwEUtBEG1tO1WQ-22" value="Change Password" style="rounded=0;whiteSpace=wrap;html=1;" vertex="1" parent="WIyWlLk6GJQsqaUBKTNV-1">
          <mxGeometry x="180" y="570" width="100" height="40" as="geometry" />
        </mxCell>
        <mxCell id="myyZjtNwEUtBEG1tO1WQ-26" value="Salary Report" style="rounded=0;whiteSpace=wrap;html=1;" vertex="1" parent="WIyWlLk6GJQsqaUBKTNV-1">
          <mxGeometry x="180" y="640" width="100" height="40" as="geometry" />
        </mxCell>
        <mxCell id="myyZjtNwEUtBEG1tO1WQ-27" value="Attendance Report" style="rounded=0;whiteSpace=wrap;html=1;" vertex="1" parent="WIyWlLk6GJQsqaUBKTNV-1">
          <mxGeometry x="180" y="710" width="100" height="40" as="geometry" />
        </mxCell>
        <mxCell id="myyZjtNwEUtBEG1tO1WQ-32" value="Database" style="shape=cylinder3;whiteSpace=wrap;html=1;boundedLbl=1;backgroundOutline=1;size=15;" vertex="1" parent="WIyWlLk6GJQsqaUBKTNV-1">
          <mxGeometry x="370" y="620" width="60" height="80" as="geometry" />
        </mxCell>
        <mxCell id="myyZjtNwEUtBEG1tO1WQ-33" value="Edit/Delete Information" style="rounded=0;whiteSpace=wrap;html=1;" vertex="1" parent="WIyWlLk6GJQsqaUBKTNV-1">
          <mxGeometry x="350" y="430" width="100" height="40" as="geometry" />
        </mxCell>
        <mxCell id="myyZjtNwEUtBEG1tO1WQ-34" value="" style="endArrow=classic;html=1;rounded=0;" edge="1" parent="WIyWlLk6GJQsqaUBKTNV-1">
          <mxGeometry width="50" height="50" relative="1" as="geometry">
            <mxPoint x="400" y="470" as="sourcePoint" />
            <mxPoint x="400" y="500" as="targetPoint" />
          </mxGeometry>
        </mxCell>
        <mxCell id="myyZjtNwEUtBEG1tO1WQ-36" value="Logout" style="rounded=0;whiteSpace=wrap;html=1;" vertex="1" parent="WIyWlLk6GJQsqaUBKTNV-1">
          <mxGeometry x="340" y="940" width="100" height="40" as="geometry" />
        </mxCell>
        <mxCell id="myyZjtNwEUtBEG1tO1WQ-38" value="Attendance" style="rounded=0;whiteSpace=wrap;html=1;" vertex="1" parent="WIyWlLk6GJQsqaUBKTNV-1">
          <mxGeometry x="560" y="290" width="100" height="40" as="geometry" />
        </mxCell>
        <mxCell id="myyZjtNwEUtBEG1tO1WQ-40" value="Employee Masterlist" style="rounded=0;whiteSpace=wrap;html=1;" vertex="1" parent="WIyWlLk6GJQsqaUBKTNV-1">
          <mxGeometry x="560" y="350" width="100" height="40" as="geometry" />
        </mxCell>
        <mxCell id="myyZjtNwEUtBEG1tO1WQ-42" value="Department" style="rounded=0;whiteSpace=wrap;html=1;" vertex="1" parent="WIyWlLk6GJQsqaUBKTNV-1">
          <mxGeometry x="560" y="410" width="100" height="40" as="geometry" />
        </mxCell>
        <mxCell id="myyZjtNwEUtBEG1tO1WQ-43" value="Shifts" style="rounded=0;whiteSpace=wrap;html=1;" vertex="1" parent="WIyWlLk6GJQsqaUBKTNV-1">
          <mxGeometry x="560" y="470" width="100" height="40" as="geometry" />
        </mxCell>
        <mxCell id="myyZjtNwEUtBEG1tO1WQ-46" value="Holidays" style="rounded=0;whiteSpace=wrap;html=1;" vertex="1" parent="WIyWlLk6GJQsqaUBKTNV-1">
          <mxGeometry x="560" y="530" width="100" height="40" as="geometry" />
        </mxCell>
        <mxCell id="myyZjtNwEUtBEG1tO1WQ-47" value="Leaves" style="rounded=0;whiteSpace=wrap;html=1;" vertex="1" parent="WIyWlLk6GJQsqaUBKTNV-1">
          <mxGeometry x="560" y="590" width="100" height="40" as="geometry" />
        </mxCell>
        <mxCell id="myyZjtNwEUtBEG1tO1WQ-50" value="" style="endArrow=none;html=1;rounded=0;exitX=0.5;exitY=0;exitDx=0;exitDy=0;" edge="1" parent="WIyWlLk6GJQsqaUBKTNV-1" source="myyZjtNwEUtBEG1tO1WQ-18">
          <mxGeometry width="50" height="50" relative="1" as="geometry">
            <mxPoint x="180" y="450" as="sourcePoint" />
            <mxPoint x="230" y="400" as="targetPoint" />
          </mxGeometry>
        </mxCell>
        <mxCell id="myyZjtNwEUtBEG1tO1WQ-51" value="" style="endArrow=none;html=1;rounded=0;exitX=0.5;exitY=0;exitDx=0;exitDy=0;" edge="1" parent="WIyWlLk6GJQsqaUBKTNV-1">
          <mxGeometry width="50" height="50" relative="1" as="geometry">
            <mxPoint x="229.76" y="500" as="sourcePoint" />
            <mxPoint x="229.76" y="470" as="targetPoint" />
          </mxGeometry>
        </mxCell>
        <mxCell id="myyZjtNwEUtBEG1tO1WQ-52" value="" style="endArrow=none;html=1;rounded=0;exitX=0.5;exitY=0;exitDx=0;exitDy=0;" edge="1" parent="WIyWlLk6GJQsqaUBKTNV-1">
          <mxGeometry width="50" height="50" relative="1" as="geometry">
            <mxPoint x="229.76" y="570" as="sourcePoint" />
            <mxPoint x="229.76" y="540" as="targetPoint" />
          </mxGeometry>
        </mxCell>
        <mxCell id="myyZjtNwEUtBEG1tO1WQ-53" value="" style="endArrow=none;html=1;rounded=0;exitX=0.5;exitY=0;exitDx=0;exitDy=0;" edge="1" parent="WIyWlLk6GJQsqaUBKTNV-1">
          <mxGeometry width="50" height="50" relative="1" as="geometry">
            <mxPoint x="229.76" y="640" as="sourcePoint" />
            <mxPoint x="229.76" y="610" as="targetPoint" />
          </mxGeometry>
        </mxCell>
        <mxCell id="myyZjtNwEUtBEG1tO1WQ-54" value="" style="endArrow=none;html=1;rounded=0;exitX=0.5;exitY=0;exitDx=0;exitDy=0;" edge="1" parent="WIyWlLk6GJQsqaUBKTNV-1">
          <mxGeometry width="50" height="50" relative="1" as="geometry">
            <mxPoint x="229.76" y="710" as="sourcePoint" />
            <mxPoint x="229.76" y="680" as="targetPoint" />
          </mxGeometry>
        </mxCell>
        <mxCell id="myyZjtNwEUtBEG1tO1WQ-55" value="" style="endArrow=none;html=1;rounded=0;" edge="1" parent="WIyWlLk6GJQsqaUBKTNV-1">
          <mxGeometry width="50" height="50" relative="1" as="geometry">
            <mxPoint x="610" y="350" as="sourcePoint" />
            <mxPoint x="609.71" y="330" as="targetPoint" />
          </mxGeometry>
        </mxCell>
        <mxCell id="myyZjtNwEUtBEG1tO1WQ-56" value="" style="endArrow=none;html=1;rounded=0;" edge="1" parent="WIyWlLk6GJQsqaUBKTNV-1">
          <mxGeometry width="50" height="50" relative="1" as="geometry">
            <mxPoint x="610" y="410" as="sourcePoint" />
            <mxPoint x="609.76" y="390" as="targetPoint" />
          </mxGeometry>
        </mxCell>
        <mxCell id="myyZjtNwEUtBEG1tO1WQ-57" value="" style="endArrow=none;html=1;rounded=0;" edge="1" parent="WIyWlLk6GJQsqaUBKTNV-1">
          <mxGeometry width="50" height="50" relative="1" as="geometry">
            <mxPoint x="610" y="470" as="sourcePoint" />
            <mxPoint x="609.76" y="450" as="targetPoint" />
          </mxGeometry>
        </mxCell>
        <mxCell id="myyZjtNwEUtBEG1tO1WQ-58" value="" style="endArrow=none;html=1;rounded=0;" edge="1" parent="WIyWlLk6GJQsqaUBKTNV-1">
          <mxGeometry width="50" height="50" relative="1" as="geometry">
            <mxPoint x="610.05" y="530" as="sourcePoint" />
            <mxPoint x="609.76" y="510" as="targetPoint" />
          </mxGeometry>
        </mxCell>
        <mxCell id="myyZjtNwEUtBEG1tO1WQ-59" value="" style="endArrow=none;html=1;rounded=0;" edge="1" parent="WIyWlLk6GJQsqaUBKTNV-1">
          <mxGeometry width="50" height="50" relative="1" as="geometry">
            <mxPoint x="610" y="590" as="sourcePoint" />
            <mxPoint x="609.76" y="570" as="targetPoint" />
          </mxGeometry>
        </mxCell>
        <mxCell id="myyZjtNwEUtBEG1tO1WQ-62" value="Daily Time Record" style="rounded=0;whiteSpace=wrap;html=1;" vertex="1" parent="WIyWlLk6GJQsqaUBKTNV-1">
          <mxGeometry x="560" y="650" width="100" height="40" as="geometry" />
        </mxCell>
        <mxCell id="myyZjtNwEUtBEG1tO1WQ-63" value="Overtime" style="rounded=0;whiteSpace=wrap;html=1;" vertex="1" parent="WIyWlLk6GJQsqaUBKTNV-1">
          <mxGeometry x="560" y="710" width="100" height="40" as="geometry" />
        </mxCell>
        <mxCell id="myyZjtNwEUtBEG1tO1WQ-64" value="Payroll Information" style="rounded=0;whiteSpace=wrap;html=1;" vertex="1" parent="WIyWlLk6GJQsqaUBKTNV-1">
          <mxGeometry x="560" y="770" width="100" height="40" as="geometry" />
        </mxCell>
        <mxCell id="myyZjtNwEUtBEG1tO1WQ-65" value="Loans" style="rounded=0;whiteSpace=wrap;html=1;" vertex="1" parent="WIyWlLk6GJQsqaUBKTNV-1">
          <mxGeometry x="560" y="830" width="100" height="40" as="geometry" />
        </mxCell>
        <mxCell id="myyZjtNwEUtBEG1tO1WQ-67" value="" style="endArrow=none;html=1;rounded=0;" edge="1" parent="WIyWlLk6GJQsqaUBKTNV-1">
          <mxGeometry width="50" height="50" relative="1" as="geometry">
            <mxPoint x="610" y="710" as="sourcePoint" />
            <mxPoint x="609.76" y="690" as="targetPoint" />
          </mxGeometry>
        </mxCell>
        <mxCell id="myyZjtNwEUtBEG1tO1WQ-68" value="" style="endArrow=none;html=1;rounded=0;" edge="1" parent="WIyWlLk6GJQsqaUBKTNV-1">
          <mxGeometry width="50" height="50" relative="1" as="geometry">
            <mxPoint x="610.05" y="770" as="sourcePoint" />
            <mxPoint x="609.76" y="750" as="targetPoint" />
          </mxGeometry>
        </mxCell>
        <mxCell id="myyZjtNwEUtBEG1tO1WQ-69" value="" style="endArrow=none;html=1;rounded=0;" edge="1" parent="WIyWlLk6GJQsqaUBKTNV-1">
          <mxGeometry width="50" height="50" relative="1" as="geometry">
            <mxPoint x="610.05" y="830" as="sourcePoint" />
            <mxPoint x="609.76" y="810" as="targetPoint" />
          </mxGeometry>
        </mxCell>
        <mxCell id="myyZjtNwEUtBEG1tO1WQ-71" value="" style="endArrow=none;html=1;rounded=0;" edge="1" parent="WIyWlLk6GJQsqaUBKTNV-1">
          <mxGeometry width="50" height="50" relative="1" as="geometry">
            <mxPoint x="610" y="650" as="sourcePoint" />
            <mxPoint x="609.76" y="630" as="targetPoint" />
          </mxGeometry>
        </mxCell>
        <mxCell id="myyZjtNwEUtBEG1tO1WQ-73" value="" style="endArrow=classic;html=1;rounded=0;exitX=1;exitY=0.5;exitDx=0;exitDy=0;" edge="1" parent="WIyWlLk6GJQsqaUBKTNV-1">
          <mxGeometry width="50" height="50" relative="1" as="geometry">
            <mxPoint x="640" y="230" as="sourcePoint" />
            <mxPoint x="620" y="190" as="targetPoint" />
            <Array as="points">
              <mxPoint x="660" y="230" />
              <mxPoint x="660" y="190" />
            </Array>
          </mxGeometry>
        </mxCell>
        <mxCell id="myyZjtNwEUtBEG1tO1WQ-74" value="NO" style="edgeLabel;html=1;align=center;verticalAlign=middle;resizable=0;points=[];" vertex="1" connectable="0" parent="myyZjtNwEUtBEG1tO1WQ-73">
          <mxGeometry x="-0.1" y="3" relative="1" as="geometry">
            <mxPoint as="offset" />
          </mxGeometry>
        </mxCell>
        <mxCell id="myyZjtNwEUtBEG1tO1WQ-75" value="" style="endArrow=classic;html=1;rounded=0;exitX=0.5;exitY=1;exitDx=0;exitDy=0;" edge="1" parent="WIyWlLk6GJQsqaUBKTNV-1">
          <mxGeometry width="50" height="50" relative="1" as="geometry">
            <mxPoint x="609.6600000000001" y="260" as="sourcePoint" />
            <mxPoint x="609.6600000000001" y="290" as="targetPoint" />
          </mxGeometry>
        </mxCell>
        <mxCell id="myyZjtNwEUtBEG1tO1WQ-76" value="YES" style="text;html=1;align=center;verticalAlign=middle;resizable=0;points=[];autosize=1;strokeColor=none;fillColor=none;" vertex="1" parent="WIyWlLk6GJQsqaUBKTNV-1">
          <mxGeometry x="540" y="240" width="50" height="30" as="geometry" />
        </mxCell>
        <mxCell id="myyZjtNwEUtBEG1tO1WQ-77" value="Confirmation" style="rhombus;whiteSpace=wrap;html=1;" vertex="1" parent="WIyWlLk6GJQsqaUBKTNV-1">
          <mxGeometry x="360" y="500" width="80" height="80" as="geometry" />
        </mxCell>
        <mxCell id="myyZjtNwEUtBEG1tO1WQ-78" value="" style="endArrow=classic;html=1;rounded=0;entryX=0.5;entryY=0;entryDx=0;entryDy=0;entryPerimeter=0;" edge="1" parent="WIyWlLk6GJQsqaUBKTNV-1" target="myyZjtNwEUtBEG1tO1WQ-32">
          <mxGeometry width="50" height="50" relative="1" as="geometry">
            <mxPoint x="400" y="580" as="sourcePoint" />
            <mxPoint x="450" y="510" as="targetPoint" />
          </mxGeometry>
        </mxCell>
        <mxCell id="myyZjtNwEUtBEG1tO1WQ-81" value="" style="endArrow=classic;html=1;rounded=0;entryX=1;entryY=0.5;entryDx=0;entryDy=0;" edge="1" parent="WIyWlLk6GJQsqaUBKTNV-1" target="myyZjtNwEUtBEG1tO1WQ-33">
          <mxGeometry width="50" height="50" relative="1" as="geometry">
            <mxPoint x="560" y="310" as="sourcePoint" />
            <mxPoint x="610" y="260" as="targetPoint" />
            <Array as="points">
              <mxPoint x="490" y="310" />
              <mxPoint x="490" y="450" />
            </Array>
          </mxGeometry>
        </mxCell>
        <mxCell id="myyZjtNwEUtBEG1tO1WQ-82" value="" style="endArrow=none;html=1;rounded=0;" edge="1" parent="WIyWlLk6GJQsqaUBKTNV-1">
          <mxGeometry width="50" height="50" relative="1" as="geometry">
            <mxPoint x="490" y="370" as="sourcePoint" />
            <mxPoint x="560" y="370" as="targetPoint" />
          </mxGeometry>
        </mxCell>
        <mxCell id="myyZjtNwEUtBEG1tO1WQ-83" value="" style="endArrow=none;html=1;rounded=0;" edge="1" parent="WIyWlLk6GJQsqaUBKTNV-1">
          <mxGeometry width="50" height="50" relative="1" as="geometry">
            <mxPoint x="490" y="430" as="sourcePoint" />
            <mxPoint x="560" y="430" as="targetPoint" />
          </mxGeometry>
        </mxCell>
        <mxCell id="myyZjtNwEUtBEG1tO1WQ-89" value="" style="endArrow=none;html=1;rounded=0;" edge="1" parent="WIyWlLk6GJQsqaUBKTNV-1">
          <mxGeometry width="50" height="50" relative="1" as="geometry">
            <mxPoint x="560" y="850" as="sourcePoint" />
            <mxPoint x="490" y="450" as="targetPoint" />
            <Array as="points">
              <mxPoint x="490" y="850" />
            </Array>
          </mxGeometry>
        </mxCell>
        <mxCell id="myyZjtNwEUtBEG1tO1WQ-91" value="" style="endArrow=none;html=1;rounded=0;" edge="1" parent="WIyWlLk6GJQsqaUBKTNV-1">
          <mxGeometry width="50" height="50" relative="1" as="geometry">
            <mxPoint x="490" y="490" as="sourcePoint" />
            <mxPoint x="560" y="489.65999999999997" as="targetPoint" />
          </mxGeometry>
        </mxCell>
        <mxCell id="myyZjtNwEUtBEG1tO1WQ-92" value="" style="endArrow=none;html=1;rounded=0;" edge="1" parent="WIyWlLk6GJQsqaUBKTNV-1">
          <mxGeometry width="50" height="50" relative="1" as="geometry">
            <mxPoint x="490" y="550" as="sourcePoint" />
            <mxPoint x="560" y="549.66" as="targetPoint" />
          </mxGeometry>
        </mxCell>
        <mxCell id="myyZjtNwEUtBEG1tO1WQ-93" value="" style="endArrow=none;html=1;rounded=0;" edge="1" parent="WIyWlLk6GJQsqaUBKTNV-1">
          <mxGeometry width="50" height="50" relative="1" as="geometry">
            <mxPoint x="490" y="610" as="sourcePoint" />
            <mxPoint x="560" y="609.66" as="targetPoint" />
          </mxGeometry>
        </mxCell>
        <mxCell id="myyZjtNwEUtBEG1tO1WQ-94" value="" style="endArrow=none;html=1;rounded=0;" edge="1" parent="WIyWlLk6GJQsqaUBKTNV-1">
          <mxGeometry width="50" height="50" relative="1" as="geometry">
            <mxPoint x="490" y="670" as="sourcePoint" />
            <mxPoint x="560" y="669.66" as="targetPoint" />
          </mxGeometry>
        </mxCell>
        <mxCell id="myyZjtNwEUtBEG1tO1WQ-95" value="" style="endArrow=none;html=1;rounded=0;" edge="1" parent="WIyWlLk6GJQsqaUBKTNV-1">
          <mxGeometry width="50" height="50" relative="1" as="geometry">
            <mxPoint x="490" y="730" as="sourcePoint" />
            <mxPoint x="560" y="729.66" as="targetPoint" />
          </mxGeometry>
        </mxCell>
        <mxCell id="myyZjtNwEUtBEG1tO1WQ-96" value="" style="endArrow=none;html=1;rounded=0;" edge="1" parent="WIyWlLk6GJQsqaUBKTNV-1">
          <mxGeometry width="50" height="50" relative="1" as="geometry">
            <mxPoint x="490" y="790" as="sourcePoint" />
            <mxPoint x="560" y="789.6600000000001" as="targetPoint" />
          </mxGeometry>
        </mxCell>
        <mxCell id="myyZjtNwEUtBEG1tO1WQ-97" value="View Payslip" style="shape=parallelogram;perimeter=parallelogramPerimeter;whiteSpace=wrap;html=1;fixedSize=1;" vertex="1" parent="WIyWlLk6GJQsqaUBKTNV-1">
          <mxGeometry x="263" y="860" width="120" height="40" as="geometry" />
        </mxCell>
        <mxCell id="myyZjtNwEUtBEG1tO1WQ-99" value="Print Payslips" style="rounded=0;whiteSpace=wrap;html=1;" vertex="1" parent="WIyWlLk6GJQsqaUBKTNV-1">
          <mxGeometry x="180" y="790" width="100" height="40" as="geometry" />
        </mxCell>
        <mxCell id="myyZjtNwEUtBEG1tO1WQ-100" value="" style="endArrow=none;html=1;rounded=0;exitX=0.5;exitY=0;exitDx=0;exitDy=0;" edge="1" parent="WIyWlLk6GJQsqaUBKTNV-1" source="myyZjtNwEUtBEG1tO1WQ-99">
          <mxGeometry width="50" height="50" relative="1" as="geometry">
            <mxPoint x="180" y="800" as="sourcePoint" />
            <mxPoint x="230" y="750" as="targetPoint" />
          </mxGeometry>
        </mxCell>
        <mxCell id="myyZjtNwEUtBEG1tO1WQ-101" value="" style="endArrow=classic;html=1;rounded=0;entryX=0;entryY=0.25;entryDx=0;entryDy=0;exitX=0.25;exitY=1;exitDx=0;exitDy=0;" edge="1" parent="WIyWlLk6GJQsqaUBKTNV-1" source="myyZjtNwEUtBEG1tO1WQ-99" target="myyZjtNwEUtBEG1tO1WQ-97">
          <mxGeometry width="50" height="50" relative="1" as="geometry">
            <mxPoint x="280" y="810" as="sourcePoint" />
            <mxPoint x="330" y="760" as="targetPoint" />
            <Array as="points">
              <mxPoint x="205" y="872" />
            </Array>
          </mxGeometry>
        </mxCell>
        <mxCell id="myyZjtNwEUtBEG1tO1WQ-102" value="" style="endArrow=none;html=1;rounded=0;entryX=0.5;entryY=1;entryDx=0;entryDy=0;entryPerimeter=0;exitX=1;exitY=0.5;exitDx=0;exitDy=0;" edge="1" parent="WIyWlLk6GJQsqaUBKTNV-1" source="myyZjtNwEUtBEG1tO1WQ-97" target="myyZjtNwEUtBEG1tO1WQ-32">
          <mxGeometry width="50" height="50" relative="1" as="geometry">
            <mxPoint x="374" y="876" as="sourcePoint" />
            <mxPoint x="390" y="830" as="targetPoint" />
            <Array as="points">
              <mxPoint x="400" y="880" />
            </Array>
          </mxGeometry>
        </mxCell>
        <mxCell id="myyZjtNwEUtBEG1tO1WQ-106" value="" style="endArrow=classic;html=1;rounded=0;exitX=1;exitY=0.5;exitDx=0;exitDy=0;" edge="1" parent="WIyWlLk6GJQsqaUBKTNV-1">
          <mxGeometry width="50" height="50" relative="1" as="geometry">
            <mxPoint x="440" y="540" as="sourcePoint" />
            <mxPoint x="420" y="490" as="targetPoint" />
            <Array as="points">
              <mxPoint x="460" y="540" />
              <mxPoint x="460" y="490" />
            </Array>
          </mxGeometry>
        </mxCell>
        <mxCell id="myyZjtNwEUtBEG1tO1WQ-107" value="Exit&amp;nbsp;" style="edgeLabel;html=1;align=center;verticalAlign=middle;resizable=0;points=[];" vertex="1" connectable="0" parent="myyZjtNwEUtBEG1tO1WQ-106">
          <mxGeometry x="-0.1" y="3" relative="1" as="geometry">
            <mxPoint as="offset" />
          </mxGeometry>
        </mxCell>
        <mxCell id="myyZjtNwEUtBEG1tO1WQ-108" value="Yes" style="text;html=1;align=center;verticalAlign=middle;resizable=0;points=[];autosize=1;strokeColor=none;fillColor=none;" vertex="1" parent="WIyWlLk6GJQsqaUBKTNV-1">
          <mxGeometry x="340" y="558" width="40" height="30" as="geometry" />
        </mxCell>
        <mxCell id="myyZjtNwEUtBEG1tO1WQ-111" value="" style="endArrow=classic;html=1;rounded=0;entryX=1;entryY=0.5;entryDx=0;entryDy=0;" edge="1" parent="WIyWlLk6GJQsqaUBKTNV-1" target="myyZjtNwEUtBEG1tO1WQ-36">
          <mxGeometry width="50" height="50" relative="1" as="geometry">
            <mxPoint x="610" y="870" as="sourcePoint" />
            <mxPoint x="660" y="820" as="targetPoint" />
            <Array as="points">
              <mxPoint x="610" y="960" />
            </Array>
          </mxGeometry>
        </mxCell>
        <mxCell id="myyZjtNwEUtBEG1tO1WQ-113" value="" style="endArrow=classic;html=1;rounded=0;entryX=0;entryY=0.5;entryDx=0;entryDy=0;" edge="1" parent="WIyWlLk6GJQsqaUBKTNV-1" target="myyZjtNwEUtBEG1tO1WQ-36">
          <mxGeometry width="50" height="50" relative="1" as="geometry">
            <mxPoint x="232" y="872" as="sourcePoint" />
            <mxPoint x="282" y="822" as="targetPoint" />
            <Array as="points">
              <mxPoint x="232" y="960" />
            </Array>
          </mxGeometry>
        </mxCell>
      </root>
    </mxGraphModel>
  </diagram>
</mxfile>
